<?xml version="1.0" encoding="UTF-8" standalone="no"?>
<svg
   xmlns:dc="http://purl.org/dc/elements/1.1/"
   xmlns:cc="http://creativecommons.org/ns#"
   xmlns:rdf="http://www.w3.org/1999/02/22-rdf-syntax-ns#"
   xmlns:svg="http://www.w3.org/2000/svg"
   xmlns="http://www.w3.org/2000/svg"
   viewBox="0 0 160 48"
   height="48"
   width="160"
   xml:space="preserve"
   id="svg2"
   version="1.1"><metadata
     id="metadata8"><rdf:RDF><cc:Work
         rdf:about=""><dc:format>image/svg+xml</dc:format><dc:type
           rdf:resource="http://purl.org/dc/dcmitype/StillImage" /></cc:Work></rdf:RDF></metadata><defs
     id="defs6"><clipPath
       id="clipPath18"
       clipPathUnits="userSpaceOnUse"><path
         id="path16"
         d="M 0,0 H 120 V 36 H 0 Z" /></clipPath><clipPath
       id="clipPath70"
       clipPathUnits="userSpaceOnUse"><path
         id="path68"
         d="m 107.707,103.883 h 79.989 V 9.00139 h -79.989 z" /></clipPath></defs><g
     transform="matrix(1.3333333,0,0,-1.3333333,0,48)"
     id="g10"><g
       id="g12"><g
         clip-path="url(#clipPath18)"
         id="g14"><g
           transform="translate(5.8164,11.5068)"
           id="g20"><path
             id="path22"
             style="fill:#231f20;fill-opacity:1;fill-rule:nonzero;stroke:none"
             d="m 0,0 c 4.21,-1.157 8.213,-1.706 12.469,-0.443 0.119,0.035 -0.102,1.189 0,1.219 C 8.213,-0.487 4.21,0.062 0,1.22 0.095,1.193 -0.112,0.031 0,0" /></g><g
           transform="translate(3.0303,6.7324)"
           id="g24"><path
             id="path26"
             style="fill:#231f20;fill-opacity:1;fill-rule:nonzero;stroke:none"
             d="m 0,0 c 9.197,-2.436 18.682,-1.196 28.041,-0.748 9.091,0.435 18.805,-1.129 27.079,-4.958 -0.264,0.122 0.29,2.043 0,2.177 C 46.881,0.284 37.84,1.41 28.84,1.463 19.09,1.52 9.636,-0.374 0,2.177 0.164,2.134 -0.194,0.052 0,0" /></g><g
           transform="translate(3.144,6.9824)"
           id="g28"><path
             id="path30"
             style="fill:#231f20;fill-opacity:1;fill-rule:nonzero;stroke:none"
             d="M 0,0 C 2.966,2.264 3.627,6.191 3.275,9.693 3.347,8.978 3.202,8.236 3.275,7.517 3.129,8.956 3.15,7.458 3.03,6.976 2.857,6.276 2.564,5.612 2.251,4.967 1.725,3.88 0.958,2.909 0,2.177 -0.36,1.902 0.339,0.259 0,0" /></g><g
           transform="translate(19.8726,11.0781)"
           id="g32"><path
             id="path34"
             style="fill:#231f20;fill-opacity:1;fill-rule:nonzero;stroke:none"
             d="M 0,0 C 2.522,0.086 5.046,0.026 7.568,0.112 7.589,0.113 7.564,1.2 7.568,1.201 5.046,1.115 2.522,1.175 0,1.089 -0.021,1.088 0.004,0 0,0" /></g><g
           transform="translate(3.3413,10.3994)"
           id="g36"><path
             id="path38"
             style="fill:#231f20;fill-opacity:1;fill-rule:nonzero;stroke:none"
             d="m 0,0 c -0.657,0.119 -0.782,0.82 -0.865,1.387 0.285,-1.935 0.011,-0.226 0.093,0.415 0.074,0.594 0.196,1.179 0.327,1.763 C -0.028,5.416 0.68,7.058 2.553,7.844 3.129,8.085 3.569,7.775 3.827,7.275 3.961,7.016 4.011,6.71 4.064,6.427 4.093,6.258 4.114,6.088 4.129,5.917 4.301,4.346 4.183,6.505 4.147,5.501 4.1,4.178 4.069,2.856 4.101,1.531 4.089,2.045 4.123,2.975 4.107,3.631 4.174,0.798 4.177,4.04 4.187,4.829 4.199,5.813 4.206,6.803 4.154,7.786 4.116,8.5 4.035,9.336 3.531,9.886 2.794,10.69 1.411,9.309 0.933,8.863 -0.631,7.41 -0.861,4.23 -0.911,2.234 -0.935,1.278 -1.37,-1.929 0,-2.177 -0.112,-2.157 0.143,-0.026 0,0" /></g><g
           transform="translate(3.1069,6.2588)"
           id="g40"><path
             id="path42"
             style="fill:#231f20;fill-opacity:1;fill-rule:nonzero;stroke:none"
             d="m 0,0 c 0.217,-1.082 0.259,-2.195 0.722,-3.213 0.228,-0.502 0.436,0.154 0.486,0.419 0.074,0.397 0.021,0.852 0.021,1.251 0,0.864 -0.01,1.584 -0.34,2.396 -0.331,0.812 -0.827,1.548 -1.257,2.31 0.115,-0.203 -0.01,-0.861 -0.01,-1.089 0,-0.244 -0.115,-0.867 0.01,-1.089 0.59,-1.046 1.318,-2.072 1.556,-3.269 -0.411,2.06 0.3,1.794 -0.219,1.121 C 0.748,-1.45 0.493,-0.459 0.437,-0.273 0.198,0.519 0.163,1.368 0,2.177 0.139,1.483 -0.141,0.7 0,0" /></g><g
           transform="translate(3.9019,6.2812)"
           id="g44"><path
             id="path46"
             style="fill:#231f20;fill-opacity:1;fill-rule:nonzero;stroke:none"
             d="M 0,0 C -0.125,0.42 -0.127,0.861 -0.182,1.292 -0.186,1.243 -0.188,1.193 -0.187,1.144 -0.193,0.842 -0.257,0.542 -0.308,0.246 c 0.004,-0.459 0.007,-0.919 0.011,-1.378 0.001,0.343 0.002,0.685 0.002,1.028 -0.004,-0.364 -0.007,-0.726 -0.011,-1.088 0.037,-0.145 0.078,-0.287 0.122,-0.429 0.034,-0.107 0.02,-0.229 0.123,-0.126 -0.026,-0.025 0.236,-0.676 0.241,-0.76 0.009,-0.149 0.01,0.183 0.009,0.11 0.003,0.216 0.004,0.433 0.004,0.65 0.001,0.205 0.002,0.41 0.002,0.614 0.001,0.446 0.009,0.894 -0.007,1.339 C 0.182,0.356 0.178,0.021 0.179,0.097 0.176,-0.12 0.175,-0.337 0.174,-0.554 0.173,-0.773 0.173,-0.993 0.173,-1.212 c 0,-0.07 -0.046,-1.073 0.011,-1.089 0.15,-0.043 0.094,0.593 0.094,0.675 0.003,0.366 0.003,0.732 0,1.099 C 0.277,-0.355 0.322,-0.102 0.246,0.061 0.268,0.014 0.238,-0.225 0.238,-0.259 0.236,-0.515 0.235,-0.771 0.235,-1.027 0.235,-1.285 0.236,-1.541 0.238,-1.798 0.239,-1.85 0.217,-2.055 0.246,-2.116 L 0.269,-2.165 C 0.266,-1.546 0.264,-0.927 0.262,-0.307 0.261,-0.327 0.261,-0.348 0.261,-0.367 0.263,-0.261 0.266,-0.154 0.269,-0.049 0.25,-0.103 0.246,-0.142 0.184,-0.124 0.187,-0.487 0.191,-0.85 0.195,-1.212 0.194,-1.551 0.175,-0.286 0.174,-0.754 0.173,-0.86 0.173,-0.966 0.173,-1.071 c 0.001,0.502 0.061,0.756 -0.107,1.169 -0.034,0.084 -0.07,0.166 -0.102,0.251 -0.042,0.109 -0.021,0.086 -0.086,0.02 0.026,0.027 -0.169,0.556 -0.184,0.615 0.02,-0.076 -0.007,-0.25 -0.007,-0.319 -0.003,-0.256 -0.004,-0.513 -0.004,-0.769 0,0.084 0,0.058 0,-0.08 0,-0.123 -0.001,-0.246 -0.001,-0.369 -0.001,-0.28 0,-0.559 0.001,-0.839 0.001,-0.164 0.037,-0.377 0.009,-0.54 0.069,0.4 0.123,0.79 0.132,1.196 -0.002,-0.05 -0.004,-0.099 -0.006,-0.149 0.055,-0.431 0.057,-0.873 0.182,-1.292 -0.021,0.071 0.007,0.257 0.008,0.319 0.002,0.256 0.003,0.513 0.003,0.77 0,0.256 -10e-4,0.513 -0.003,0.77 C 0.007,-0.239 0.024,-0.083 0,0" /></g><g
           transform="translate(3.5513,6.0137)"
           id="g48"><path
             id="path50"
             style="fill:#231f20;fill-opacity:1;fill-rule:nonzero;stroke:none"
             d="M 0,0 C 0.071,-0.347 0.143,-0.693 0.226,-1.038 V 1.14 C 0.15,1.277 0.082,1.416 0.024,1.562 0.046,1.506 0.017,1.289 0.017,1.243 0.014,0.987 0.014,0.73 0.014,0.474 c 0,-0.257 0,-0.514 0.003,-0.77 C 0.018,-0.377 0,-0.53 0.024,-0.615 0.07,-0.775 0.044,-0.948 0.105,-1.104 V 1.073 C 0.026,1.23 -0.02,1.4 -0.099,1.557 -0.077,1.514 -0.106,1.268 -0.106,1.238 -0.109,0.981 -0.11,0.726 -0.11,0.469 c 0,-0.257 0.001,-0.514 0.004,-0.77 0,-0.08 -0.018,-0.234 0.007,-0.319 0.024,-0.081 0.047,-0.162 0.071,-0.243 0.004,0.05 0.006,0.098 0.006,0.148 0.003,0.217 0.004,0.434 0.004,0.651 10e-4,0.446 0.011,0.893 -0.007,1.339 -0.013,0.327 -0.037,0.651 -0.162,0.956 0.022,-0.054 -0.007,-0.276 -0.007,-0.318 -0.003,-0.257 -0.004,-0.514 -0.004,-0.77 0,-0.256 0.001,-0.513 0.004,-0.77 0,-0.061 -0.021,-0.249 0.007,-0.318 0.115,-0.283 0.144,-0.577 0.156,-0.879 0.001,0.713 0.002,1.426 0.003,2.138 -0.024,0.082 -0.047,0.163 -0.071,0.243 V -0.62 c 0.079,-0.156 0.125,-0.327 0.204,-0.484 -0.022,0.043 0.007,0.29 0.008,0.319 0.002,0.257 0.003,0.513 0.003,0.769 0,0.257 -0.001,0.514 -0.003,0.77 C 0.112,0.818 0.133,1.002 0.105,1.073 0.044,1.228 0.07,1.402 0.024,1.562 V -0.615 C 0.082,-0.761 0.15,-0.9 0.226,-1.038 c -0.022,0.04 0.007,0.295 0.007,0.319 0.002,0.256 0.003,0.514 0.003,0.77 0,0.257 -0.001,0.513 -0.003,0.769 C 0.232,0.909 0.248,1.049 0.226,1.14 0.143,1.484 0.071,1.831 0,2.177 0.018,2.094 -0.007,1.937 -0.008,1.858 -0.01,1.602 -0.011,1.345 -0.011,1.089 -0.011,0.832 -0.01,0.575 -0.008,0.318 -0.007,0.226 -0.02,0.096 0,0" /></g><g
           transform="translate(3.5347,10.1758)"
           id="g52"><path
             id="path54"
             style="fill:#231f20;fill-opacity:1;fill-rule:nonzero;stroke:none"
             d="m 0,0 c -0.067,0.063 -0.096,0.14 -0.086,0.231 0.003,-0.62 0.005,-1.239 0.007,-1.858 0.009,0.738 0.063,1.501 -0.034,2.234 -0.048,0.368 -0.196,0.692 -0.384,1.005 -0.116,0.193 -0.232,0.368 -0.328,0.573 -0.023,0.08 -0.047,0.161 -0.07,0.242 -0.061,-1.348 -0.047,-1.694 0.039,-1.036 0.106,0.712 -0.106,1.47 0,2.176 -0.134,-0.895 -0.101,-1.81 -0.085,-2.714 0.017,-0.997 0.729,-1.665 0.857,-2.64 -0.002,0.619 -0.005,1.238 -0.008,1.857 -0.006,-0.492 -0.007,-0.984 -0.003,-1.477 0.001,-0.248 -0.049,-0.557 0.095,-0.77 -0.115,0.17 0.011,0.888 0.011,1.088 0,0.217 0.117,0.9 -0.011,1.089" /></g><g
           transform="translate(2.5186,10.3066)"
           id="g56"><path
             id="path58"
             style="fill:#231f20;fill-opacity:1;fill-rule:nonzero;stroke:none"
             d="m 0,0 c -0.005,0.224 0.006,-0.266 0.007,-0.309 0.002,-0.112 0.018,-0.219 0.043,-0.329 -0.018,0.08 0.007,0.244 0.008,0.32 0.003,0.256 0.003,0.512 0.003,0.769 C 0.061,0.803 0.102,1.19 0.05,1.54 0.012,1.795 -0.08,2.041 -0.087,2.301 -0.088,1.588 -0.089,0.875 -0.09,0.162 -0.073,0.342 -0.064,0.39 0.011,0.2 0.057,0.088 0.067,-0.039 0.077,-0.158 0.074,-0.108 0.073,-0.06 0.071,-0.01 c 0.001,-0.03 0.001,-0.061 0.002,-0.093 0,0.664 0.001,1.328 0.002,1.99 C 0.066,1.689 0.054,2.105 0.052,2.144 0.044,2.269 0.021,2.386 -0.011,2.507 V 0.329 C 0.141,-0.19 0.218,-0.729 0.374,-1.248 V 0.929 C 0.288,1.216 0.156,1.485 0.064,1.771 0.084,1.705 0.057,1.509 0.056,1.452 0.053,1.195 0.053,0.938 0.053,0.683 c 0,-0.257 0,-0.514 0.003,-0.771 0.001,-0.074 -0.018,-0.238 0.008,-0.318 0.092,-0.285 0.224,-0.555 0.31,-0.842 -0.02,0.069 0.007,0.258 0.008,0.318 0.002,0.257 0.003,0.514 0.003,0.77 0,0.257 -0.001,0.514 -0.003,0.77 C 0.381,0.688 0.399,0.846 0.374,0.929 0.218,1.448 0.141,1.986 -0.011,2.507 0.009,2.436 -0.018,2.25 -0.019,2.188 -0.021,1.931 -0.022,1.675 -0.022,1.418 c 0,-0.257 10e-4,-0.513 0.003,-0.77 0.001,-0.085 -0.016,-0.231 0.008,-0.319 0.063,-0.237 0.066,-0.475 0.073,-0.72 0,-0.012 0.001,-0.025 0.002,-0.039 0.065,0.599 0.027,1.217 0.023,1.818 -0.002,0.378 0.038,0.794 -0.145,1.139 0.023,-0.043 -0.039,-0.458 -0.04,-0.506 -0.005,-0.513 -0.005,-1.027 0,-1.541 0.004,-0.391 0.091,-0.734 0.148,-1.118 V 1.54 C 0.04,1.584 0.011,1.941 0.014,1.716 0.012,1.844 0.009,1.972 0.006,2.1 0.002,2.25 -0.004,1.913 -0.002,1.989 -0.006,1.772 -0.007,1.556 -0.007,1.339 -0.008,0.893 -0.011,0.446 0,0" /></g><g
           transform="translate(11.0273,6.1699)"
           id="g60"><path
             id="path62"
             style="fill:#231f20;fill-opacity:1;fill-rule:nonzero;stroke:none"
             d="M 0,0 -2.835,0.832 -1.566,5.16 1.27,4.327 Z" /></g><g
           id="g64"><g
             id="g66" /><g
             id="g74"><g
               style="opacity:0.75"
               id="g72"
               clip-path="url(#clipPath70)" /></g></g><g
           transform="translate(48.1636,32.6831)"
           id="g76"><path
             id="path78"
             style="fill:#70c074;fill-opacity:1;fill-rule:nonzero;stroke:none"
             d="m 0,0 c -2.977,0.003 -5.168,-1.094 -6.575,-3.29 -1.408,-2.196 -2.113,-5.103 -2.116,-8.719 -0.002,-1.502 0.302,-2.908 0.913,-4.215 0.611,-1.309 1.402,-2.394 2.376,-3.257 0.807,0.805 1.642,1.208 2.504,1.206 0.862,0 2.154,-0.808 3.878,-2.423 1.809,0.582 3.187,1.784 4.135,3.606 0.947,1.82 1.423,4.134 1.426,6.946 0.003,2.809 -0.607,5.201 -1.829,7.179 C 3.49,-0.991 1.919,-0.002 0,0 M 1.129,1.918 C 3.827,1.916 5.954,1.037 7.51,-0.717 9.066,-2.471 9.843,-4.892 9.84,-7.98 c -0.003,-3.088 -0.667,-5.897 -1.992,-8.427 -1.323,-2.53 -3.168,-4.392 -5.534,-5.587 1.195,-1.057 2.043,-1.587 2.544,-1.588 1.474,-10e-4 2.671,0.68 3.591,2.041 0.473,0.696 0.849,1.042 1.127,1.042 0.278,0 0.417,-0.139 0.417,-0.417 -10e-4,-0.667 -0.239,-1.364 -0.711,-2.085 -1.394,-2.168 -3.328,-3.251 -5.804,-3.249 -1.084,0.001 -2.559,1.087 -4.42,3.258 -0.779,-0.136 -1.489,-0.206 -2.128,-0.205 -2.531,10e-4 -4.596,0.923 -6.193,2.76 -1.598,1.838 -2.395,4.078 -2.393,6.721 0.004,4.06 1.01,7.607 3.015,10.637 0.975,1.528 2.305,2.744 3.989,3.647 1.684,0.902 3.61,1.352 5.781,1.35" /></g><g
           transform="translate(17.9043,19.7026)"
           id="g80"><path
             id="path82"
             style="fill:#231f20;fill-opacity:1;fill-rule:nonzero;stroke:none"
             d="m 0,0 c -0.601,-0.436 -0.967,-1.176 -0.95,-1.918 0.009,-0.355 0.098,-0.703 0.132,-1.057 0.065,-0.687 -0.084,-1.395 0.072,-2.068 0.115,-0.49 0.384,-0.928 0.566,-1.397 0.314,-0.807 0.368,-1.704 0.205,-2.554 -0.052,-0.271 -0.128,-0.543 -0.25,-0.792 -0.442,-0.905 -1.449,-1.413 -2.443,-1.576 -0.288,-0.047 -0.607,-0.085 -0.8,-0.305 -0.04,-0.044 -0.074,-0.102 -0.068,-0.163 0.007,-0.06 0.072,-0.115 0.116,-0.122 0.441,-0.127 0.903,-0.18 1.361,-0.157 0.652,0.032 1.293,0.218 1.944,0.196 0.602,-0.018 1.195,-0.214 1.796,-0.178 0.175,0.01 0.366,0.05 0.474,0.189 0.176,0.225 0.033,0.544 -0.072,0.81 -0.228,0.566 -0.26,1.193 -0.221,1.801 0.038,0.61 0.143,1.214 0.181,1.824 0.066,1.077 -0.084,2.155 -0.221,3.267 0.775,-1.389 2.048,-2.425 3.34,-3.354 0.497,-0.357 1.004,-0.705 1.55,-0.982 0.815,-0.412 1.722,-0.67 2.432,-1.174 1.576,-1.395 3.537,-2.348 5.621,-2.662 0.432,-0.603 1.264,-0.73 2.005,-0.774 3.96,-0.235 7.964,0.474 11.889,-0.11 0.677,-0.102 1.354,-0.241 2.039,-0.241 0.486,0 0.971,0.071 1.456,0.037 0.548,-0.039 1.081,-0.21 1.63,-0.225 0.05,-10e-4 0.104,0 0.147,0.028 0.1,0.066 0.065,0.227 -0.014,0.317 -0.078,0.09 -0.19,0.157 -0.308,0.333 -0.479,0.016 -0.925,0.232 -1.342,0.467 -0.408,0.231 -0.805,0.483 -1.187,0.756 -0.326,0.234 -0.643,0.483 -0.907,0.784 -0.144,0.167 -0.279,0.354 -0.476,0.454 -0.207,0.103 -0.456,0.092 -0.679,0.033 -0.162,-0.044 -0.321,-0.114 -0.435,-0.237 -0.114,-0.122 -0.177,-0.3 -0.146,-0.463 -1.314,-0.308 -2.697,-0.016 -3.971,0.429 -0.489,0.17 -0.976,0.365 -1.49,0.421 -0.773,0.084 -1.541,-0.151 -2.313,-0.248 -0.538,-0.067 -1.083,-0.067 -1.6,0.076 -1.013,-0.125 -1.99,0.384 -2.859,0.92 -1.145,0.705 -2.242,1.486 -3.342,2.291 0.095,0.203 0.111,0.437 0.106,0.662 -0.031,1.513 -1.013,2.966 -2.406,3.556 -0.062,0.026 -0.132,0.05 -0.191,0.026 -0.397,1.024 -0.321,2.181 -0.034,3.242 0.074,0.275 0.163,0.548 0.29,0.803 0.227,0.455 0.569,0.84 0.895,1.2 0.545,0.341 1.045,0.752 1.497,1.277 0.035,-0.577 0.392,-1.105 0.87,-1.428 0.479,-0.324 1.066,-0.46 1.685,-0.466 -0.283,-1.555 -1.135,-2.999 -2.378,-3.997 0.238,0.011 0.47,0.105 0.711,0.237 -0.344,-0.933 -0.526,-1.924 -0.499,-2.935 0.064,0.327 0.234,0.633 0.519,0.824 -0.31,-0.541 -0.395,-1.208 -0.169,-1.775 -0.051,0.185 0.015,0.401 0.143,0.507 -0.138,-0.685 0.009,-1.421 0.441,-1.971 -0.099,0.148 -0.097,0.358 0.053,0.539 -0.042,-0.126 0.014,-0.262 0.063,-0.386 0.049,-0.123 0.091,-0.267 0.037,-0.345 0.119,0.023 0.208,0.135 0.241,0.253 0.033,0.118 0.023,0.244 0.042,0.443 0.149,-0.185 0.212,-0.437 0.165,-0.622 0.355,0.605 0.553,1.303 0.565,2.051 0.093,-0.126 0.129,-0.292 0.116,-0.453 0.386,0.92 0.525,1.942 0.39,2.959 0.08,-0.081 0.139,-0.181 0.156,-0.281 0.411,1.327 0.448,2.768 0.113,4.113 -0.033,0.193 0.009,0.398 0.113,0.564 0.104,0.166 0.27,0.293 0.473,0.354 0.618,0.172 1.114,0.637 1.485,1.161 0.349,0.491 0.614,1.077 0.575,1.678 -0.037,0.57 -0.341,1.084 -0.641,1.544 -0.005,0.14 -0.074,0.275 -0.183,0.362 -0.124,0.099 -0.3,0.138 -0.398,0.267 -0.077,0.156 -0.092,0.335 -0.085,0.507 0.006,0.173 0.033,0.345 0.033,0.519 0,0.088 -0.015,0.189 -0.092,0.234 C 17.517,7.926 17.457,7.923 17.406,7.903 17.355,7.884 17.312,7.85 17.288,7.816 17.244,7.792 17.212,7.75 17.169,7.723 17.128,7.698 17.063,7.692 17.035,7.732 17.021,7.753 17.021,7.778 17.019,7.802 17.016,7.873 17.013,7.943 17.009,8.015 17.008,8.038 17.008,8.061 16.996,8.081 16.976,8.118 16.928,8.131 16.887,8.124 16.846,8.116 16.81,8.092 16.741,8.067 16.758,8.133 16.718,8.208 16.654,8.23 16.591,8.252 16.513,8.219 16.467,8.171 c -0.06,0.005 -0.122,0.01 -0.179,0.031 -0.058,0.022 -0.111,0.06 -0.138,0.114 -0.039,0.079 -0.014,0.174 0.002,0.236 0.1,0.268 0.334,0.459 0.603,0.631 0.081,0.316 0.367,0.533 0.641,0.71 0.497,0.322 1.018,0.604 1.506,0.938 0.606,0.413 1.158,0.9 1.745,1.339 0.587,0.44 1.221,0.837 1.927,1.035 0.052,0.015 0.106,0.029 0.16,0.027 0.131,-0.006 0.236,-0.103 0.335,-0.189 0.301,-0.257 0.644,-0.463 1.014,-0.606 0.121,-0.048 0.282,-0.079 0.364,0.023 0.06,0.076 0.04,0.193 -0.02,0.269 -0.06,0.076 -0.15,0.121 -0.257,0.161 -0.023,0.139 0.053,0.288 0.178,0.354 0.084,0.043 0.181,0.05 0.276,0.056 0.211,0.014 0.423,0.028 0.633,0.026 0.538,0.152 1.081,0.305 1.576,0.566 0.018,0.009 0.036,0.02 0.045,0.037 0.021,0.05 -0.048,0.089 -0.123,0.113 0.056,0.035 0.107,0.078 0.153,0.125 -0.035,0.05 -0.063,0.107 -0.102,0.163 0.027,0.034 0.055,0.079 0.035,0.118 -0.016,0.031 -0.055,0.04 -0.091,0.048 -0.095,0.016 -0.191,0.034 -0.341,0.043 0.035,0.024 0.07,0.05 0.096,0.084 0.027,0.033 0.044,0.077 0.036,0.119 -0.012,0.059 -0.067,0.098 -0.122,0.121 -0.085,0.035 -0.177,0.046 -0.252,0.057 -0.219,-0.02 -0.439,-0.022 -0.648,-0.005 0.066,0.056 0.119,0.126 0.153,0.205 -0.02,0.032 -0.062,0.04 -0.099,0.046 -0.092,0.01 -0.183,0.015 -0.281,0.008 -0.475,0.066 -0.956,0.082 -1.434,0.049 C 23.699,15.212 23.539,15.195 23.389,15.138 23.258,15.087 23.141,15.01 23.025,14.932 22.849,14.814 22.673,14.696 22.5,14.576 22.199,14.368 21.902,14.153 21.62,13.933 20.304,13.717 18.992,13.377 17.823,12.737 17.277,12.438 16.768,12.078 16.261,11.719 15.424,11.126 14.582,10.529 13.864,9.797 13.308,9.229 12.834,8.588 12.362,7.95 12.157,7.672 11.953,7.395 11.702,7.135 11.128,6.847 10.483,6.735 9.847,6.641 9.211,6.547 8.567,6.465 7.969,6.229 7.372,5.994 6.814,5.58 6.554,4.993 6.175,4.141 6.485,3.153 6.406,2.224 6.312,1.13 5.674,0.145 5.53,-0.943 5.495,-1.212 5.489,-1.483 5.485,-1.753 5.479,-2.025 5.474,-2.298 5.452,-2.589 4.555,-1.792 3.584,-1.069 2.512,-0.529 1.914,-0.228 1.275,0.018 0.608,0.075 0.407,0.093 0.172,0.126 0,0" /></g><g
           transform="translate(17.9043,19.7026)"
           id="g84"><path
             id="path86"
             style="fill:none;stroke:#71c175;stroke-width:0.5;stroke-linecap:butt;stroke-linejoin:miter;stroke-miterlimit:10;stroke-dasharray:none;stroke-opacity:1"
             d="m 0,0 c -0.601,-0.436 -0.967,-1.176 -0.95,-1.918 0.009,-0.355 0.098,-0.703 0.132,-1.057 0.065,-0.687 -0.084,-1.395 0.072,-2.068 0.115,-0.49 0.384,-0.928 0.566,-1.397 0.314,-0.807 0.368,-1.704 0.205,-2.554 -0.052,-0.271 -0.128,-0.543 -0.25,-0.792 -0.442,-0.905 -1.449,-1.413 -2.443,-1.576 -0.288,-0.047 -0.607,-0.085 -0.8,-0.305 -0.04,-0.044 -0.074,-0.102 -0.068,-0.163 0.007,-0.06 0.072,-0.115 0.116,-0.122 0.441,-0.127 0.903,-0.18 1.361,-0.157 0.652,0.032 1.293,0.218 1.944,0.196 0.602,-0.018 1.195,-0.214 1.796,-0.178 0.175,0.01 0.366,0.05 0.474,0.189 0.176,0.225 0.033,0.544 -0.072,0.81 -0.228,0.566 -0.26,1.193 -0.221,1.801 0.038,0.61 0.143,1.214 0.181,1.824 0.066,1.077 -0.084,2.155 -0.221,3.267 0.775,-1.389 2.048,-2.425 3.34,-3.354 0.497,-0.357 1.004,-0.705 1.55,-0.982 0.815,-0.412 1.722,-0.67 2.432,-1.174 1.576,-1.395 3.537,-2.348 5.621,-2.662 0.432,-0.603 1.264,-0.73 2.005,-0.774 3.96,-0.235 7.964,0.474 11.889,-0.11 0.677,-0.102 1.354,-0.241 2.039,-0.241 0.486,0 0.971,0.071 1.456,0.037 0.548,-0.039 1.081,-0.21 1.63,-0.225 0.05,-10e-4 0.104,0 0.147,0.028 0.1,0.066 0.065,0.227 -0.014,0.317 -0.078,0.09 -0.19,0.157 -0.308,0.333 -0.479,0.016 -0.925,0.232 -1.342,0.467 -0.408,0.231 -0.805,0.483 -1.187,0.756 -0.326,0.234 -0.643,0.483 -0.907,0.784 -0.144,0.167 -0.279,0.354 -0.476,0.454 -0.207,0.103 -0.456,0.092 -0.679,0.033 -0.162,-0.044 -0.321,-0.114 -0.435,-0.237 -0.114,-0.122 -0.177,-0.3 -0.146,-0.463 -1.314,-0.308 -2.697,-0.016 -3.971,0.429 -0.489,0.17 -0.976,0.365 -1.49,0.421 -0.773,0.084 -1.541,-0.151 -2.313,-0.248 -0.538,-0.067 -1.083,-0.067 -1.6,0.076 -1.013,-0.125 -1.99,0.384 -2.859,0.92 -1.145,0.705 -2.242,1.486 -3.342,2.291 0.095,0.203 0.111,0.437 0.106,0.662 -0.031,1.513 -1.013,2.966 -2.406,3.556 -0.062,0.026 -0.132,0.05 -0.191,0.026 -0.397,1.024 -0.321,2.181 -0.034,3.242 0.074,0.275 0.163,0.548 0.29,0.803 0.227,0.455 0.569,0.84 0.895,1.2 0.545,0.341 1.045,0.752 1.497,1.277 0.035,-0.577 0.392,-1.105 0.87,-1.428 0.479,-0.324 1.066,-0.46 1.685,-0.466 -0.283,-1.555 -1.135,-2.999 -2.378,-3.997 0.238,0.011 0.47,0.105 0.711,0.237 -0.344,-0.933 -0.526,-1.924 -0.499,-2.935 0.064,0.327 0.234,0.633 0.519,0.824 -0.31,-0.541 -0.395,-1.208 -0.169,-1.775 -0.051,0.185 0.015,0.401 0.143,0.507 -0.138,-0.685 0.009,-1.421 0.441,-1.971 -0.099,0.148 -0.097,0.358 0.053,0.539 -0.042,-0.126 0.014,-0.262 0.063,-0.386 0.049,-0.123 0.091,-0.267 0.037,-0.345 0.119,0.023 0.208,0.135 0.241,0.253 0.033,0.118 0.023,0.244 0.042,0.443 0.149,-0.185 0.212,-0.437 0.165,-0.622 0.355,0.605 0.553,1.303 0.565,2.051 0.093,-0.126 0.129,-0.292 0.116,-0.453 0.386,0.92 0.525,1.942 0.39,2.959 0.08,-0.081 0.139,-0.181 0.156,-0.281 0.411,1.327 0.448,2.768 0.113,4.113 -0.033,0.193 0.009,0.398 0.113,0.564 0.104,0.166 0.27,0.293 0.473,0.354 0.618,0.172 1.114,0.637 1.485,1.161 0.349,0.491 0.614,1.077 0.575,1.678 -0.037,0.57 -0.341,1.084 -0.641,1.544 -0.005,0.14 -0.074,0.275 -0.183,0.362 -0.124,0.099 -0.3,0.138 -0.398,0.267 -0.077,0.156 -0.092,0.335 -0.085,0.507 0.006,0.173 0.033,0.345 0.033,0.519 0,0.088 -0.015,0.189 -0.092,0.234 C 17.517,7.926 17.457,7.923 17.406,7.903 17.355,7.884 17.312,7.85 17.288,7.816 17.244,7.792 17.212,7.75 17.169,7.723 17.128,7.698 17.063,7.692 17.035,7.732 17.021,7.753 17.021,7.778 17.019,7.802 17.016,7.873 17.013,7.943 17.009,8.015 17.008,8.038 17.008,8.061 16.996,8.081 16.976,8.118 16.928,8.131 16.887,8.124 16.846,8.116 16.81,8.092 16.741,8.067 16.758,8.133 16.718,8.208 16.654,8.23 16.591,8.252 16.513,8.219 16.467,8.171 c -0.06,0.005 -0.122,0.01 -0.179,0.031 -0.058,0.022 -0.111,0.06 -0.138,0.114 -0.039,0.079 -0.014,0.174 0.002,0.236 0.1,0.268 0.334,0.459 0.603,0.631 0.081,0.316 0.367,0.533 0.641,0.71 0.497,0.322 1.018,0.604 1.506,0.938 0.606,0.413 1.158,0.9 1.745,1.339 0.587,0.44 1.221,0.837 1.927,1.035 0.052,0.015 0.106,0.029 0.16,0.027 0.131,-0.006 0.236,-0.103 0.335,-0.189 0.301,-0.257 0.644,-0.463 1.014,-0.606 0.121,-0.048 0.282,-0.079 0.364,0.023 0.06,0.076 0.04,0.193 -0.02,0.269 -0.06,0.076 -0.15,0.121 -0.257,0.161 -0.023,0.139 0.053,0.288 0.178,0.354 0.084,0.043 0.181,0.05 0.276,0.056 0.211,0.014 0.423,0.028 0.633,0.026 0.538,0.152 1.081,0.305 1.576,0.566 0.018,0.009 0.036,0.02 0.045,0.037 0.021,0.05 -0.048,0.089 -0.123,0.113 0.056,0.035 0.107,0.078 0.153,0.125 -0.035,0.05 -0.063,0.107 -0.102,0.163 0.027,0.034 0.055,0.079 0.035,0.118 -0.016,0.031 -0.055,0.04 -0.091,0.048 -0.095,0.016 -0.191,0.034 -0.341,0.043 0.035,0.024 0.07,0.05 0.096,0.084 0.027,0.033 0.044,0.077 0.036,0.119 -0.012,0.059 -0.067,0.098 -0.122,0.121 -0.085,0.035 -0.177,0.046 -0.252,0.057 -0.219,-0.02 -0.439,-0.022 -0.648,-0.005 0.066,0.056 0.119,0.126 0.153,0.205 -0.02,0.032 -0.062,0.04 -0.099,0.046 -0.092,0.01 -0.183,0.015 -0.281,0.008 -0.475,0.066 -0.956,0.082 -1.434,0.049 C 23.699,15.212 23.539,15.195 23.389,15.138 23.258,15.087 23.141,15.01 23.025,14.932 22.849,14.814 22.673,14.696 22.5,14.576 22.199,14.368 21.902,14.153 21.62,13.933 20.304,13.717 18.992,13.377 17.823,12.737 17.277,12.438 16.768,12.078 16.261,11.719 15.424,11.126 14.582,10.529 13.864,9.797 13.308,9.229 12.834,8.588 12.362,7.95 12.157,7.672 11.953,7.395 11.702,7.135 11.128,6.847 10.483,6.735 9.847,6.641 9.211,6.547 8.567,6.465 7.969,6.229 7.372,5.994 6.814,5.58 6.554,4.993 6.175,4.141 6.485,3.153 6.406,2.224 6.312,1.13 5.674,0.145 5.53,-0.943 5.495,-1.212 5.489,-1.483 5.485,-1.753 5.479,-2.025 5.474,-2.298 5.452,-2.589 4.555,-1.792 3.584,-1.069 2.512,-0.529 1.914,-0.228 1.275,0.018 0.608,0.075 0.407,0.093 0.172,0.126 0,0 Z" /></g><g
           transform="translate(66.5557,30.9253)"
           id="g88"><path
             id="path90"
             style="fill:#70c074;fill-opacity:1;fill-rule:nonzero;stroke:none"
             d="m 0,0 c 0,-0.362 -0.086,-0.697 -0.258,-1.003 -0.199,-0.355 -0.553,-0.579 -1.061,-0.669 0.24,-0.063 0.461,-0.186 0.665,-0.371 0.202,-0.185 0.337,-0.336 0.402,-0.455 0.065,-0.118 0.132,-0.251 0.2,-0.397 0.406,-0.801 0.726,-1.278 0.96,-1.432 0.123,-0.076 0.278,-0.114 0.464,-0.114 V -4.546 H 0.155 c -0.68,0 -1.125,0.046 -1.33,0.136 -0.283,0.125 -0.486,0.266 -0.614,0.423 -0.127,0.157 -0.249,0.34 -0.365,0.549 -0.187,0.32 -0.338,0.776 -0.454,1.369 -0.07,0.313 -0.183,0.512 -0.341,0.595 v 0.084 h 0.052 c 0.192,0 0.361,0.089 0.505,0.266 0.145,0.178 0.238,0.469 0.278,0.873 v 0.063 c 0.035,0.313 0.007,0.573 -0.082,0.778 -0.09,0.206 -0.169,0.344 -0.238,0.413 -0.069,0.07 -0.158,0.122 -0.267,0.157 -0.117,0.042 -0.225,0.063 -0.32,0.063 h -0.207 v -5.121 c 0,-0.174 0.057,-0.309 0.171,-0.402 0.113,-0.095 0.239,-0.141 0.375,-0.141 h 0.093 v -0.105 h -3.309 v 0.105 h 0.113 c 0.144,0 0.268,0.052 0.371,0.156 0.103,0.105 0.155,0.234 0.155,0.387 v 4.974 c 0,0.153 -0.05,0.282 -0.15,0.387 C -5.508,1.567 -5.63,1.62 -5.774,1.62 h -0.124 v 0.104 h 3.546 C -0.784,1.724 0,1.149 0,0" /></g><g
           transform="translate(67.5361,26.3794)"
           id="g92"><path
             id="path94"
             style="fill:#70c074;fill-opacity:1;fill-rule:nonzero;stroke:none"
             d="m 0,0 v 0.104 h 0.112 c 0.145,0 0.255,0.039 0.33,0.115 0.138,0.133 0.207,0.276 0.207,0.429 v 4.964 c 0,0.16 -0.053,0.292 -0.16,0.397 C 0.382,6.113 0.257,6.166 0.112,6.166 H 0 v 0.105 h 4.021 c 0.172,0 0.365,0.017 0.578,0.052 0.213,0.034 0.361,0.069 0.443,0.104 V 4.452 H 4.939 V 4.504 C 4.939,4.908 4.835,5.222 4.624,5.445 4.414,5.667 4.117,5.783 3.732,5.79 H 2.67 V 3.333 H 3.464 C 3.767,3.341 4.013,3.443 4.201,3.642 4.391,3.84 4.485,4.097 4.485,4.41 V 4.431 H 4.589 V 1.735 H 4.485 V 1.776 C 4.485,2.083 4.391,2.337 4.201,2.54 4.013,2.742 3.767,2.842 3.464,2.842 H 2.67 V 0.48 h 0.99 c 0.412,0 0.787,0.154 1.124,0.46 0.337,0.307 0.568,0.725 0.691,1.254 H 5.568 L 5.279,0 Z" /></g><g
           transform="translate(78.5078,30.8101)"
           id="g96"><path
             id="path98"
             style="fill:#70c074;fill-opacity:1;fill-rule:nonzero;stroke:none"
             d="m 0,0 h -0.104 v 0.063 c 0,0.543 -0.184,0.919 -0.556,1.128 -0.186,0.105 -0.409,0.161 -0.671,0.168 h -1.041 v -2.456 h 0.784 c 0.31,0.007 0.559,0.11 0.747,0.308 0.19,0.199 0.283,0.455 0.283,0.768 V 0 h 0.105 v -2.696 h -0.105 v 0.042 c 0,0.306 -0.093,0.561 -0.283,0.763 -0.188,0.202 -0.437,0.303 -0.747,0.303 h -0.784 v -2.195 c 0.007,-0.216 0.096,-0.373 0.268,-0.47 0.083,-0.049 0.175,-0.073 0.279,-0.073 h 0.102 v -0.105 h -3.32 v 0.105 h 0.113 c 0.145,0 0.27,0.052 0.377,0.157 0.107,0.104 0.16,0.233 0.16,0.386 v 4.964 c 0,0.16 -0.053,0.293 -0.16,0.397 -0.107,0.105 -0.232,0.157 -0.377,0.157 h -0.113 v 0.104 h 4.022 c 0.172,0 0.364,0.018 0.578,0.053 0.213,0.035 0.36,0.069 0.443,0.104 z" /></g><g
           transform="translate(81.25,29.5146)"
           id="g100"><path
             id="path102"
             style="fill:#70c074;fill-opacity:1;fill-rule:nonzero;stroke:none"
             d="m 0,0 c 0,-0.892 0.142,-1.58 0.423,-2.064 0.281,-0.485 0.69,-0.727 1.227,-0.727 0.537,0 0.945,0.242 1.227,0.727 C 3.159,-1.58 3.3,-0.896 3.3,-0.011 3.3,1.195 3.053,2.017 2.558,2.456 2.311,2.679 2.007,2.79 1.65,2.79 1.113,2.79 0.704,2.548 0.423,2.064 0.142,1.579 0,0.892 0,0 m -2.104,0 c 0,1.031 0.332,1.833 0.996,2.404 0.663,0.571 1.585,0.857 2.763,0.857 1.179,0 2.1,-0.286 2.764,-0.857 C 5.083,1.833 5.414,1.031 5.414,0 5.414,-1.031 5.083,-1.833 4.419,-2.404 3.755,-2.976 2.834,-3.261 1.655,-3.261 c -1.178,0 -2.1,0.285 -2.763,0.857 -0.664,0.571 -0.996,1.373 -0.996,2.404" /></g><g
           transform="translate(93.0469,30.9253)"
           id="g104"><path
             id="path106"
             style="fill:#70c074;fill-opacity:1;fill-rule:nonzero;stroke:none"
             d="m 0,0 c 0,-0.362 -0.086,-0.697 -0.258,-1.003 -0.199,-0.355 -0.553,-0.579 -1.061,-0.669 0.24,-0.063 0.462,-0.186 0.665,-0.371 0.203,-0.185 0.337,-0.336 0.402,-0.455 0.065,-0.118 0.133,-0.251 0.201,-0.397 0.405,-0.801 0.726,-1.278 0.958,-1.432 0.125,-0.076 0.28,-0.114 0.465,-0.114 V -4.546 H 0.154 c -0.679,0 -1.123,0.046 -1.329,0.136 -0.282,0.125 -0.486,0.266 -0.613,0.423 -0.128,0.157 -0.25,0.34 -0.367,0.549 -0.185,0.32 -0.337,0.776 -0.453,1.369 -0.069,0.313 -0.183,0.512 -0.34,0.595 v 0.084 h 0.051 c 0.192,0 0.361,0.089 0.504,0.266 0.146,0.178 0.238,0.469 0.28,0.873 v 0.063 c 0.034,0.313 0.007,0.573 -0.082,0.778 -0.09,0.206 -0.169,0.344 -0.238,0.413 -0.069,0.07 -0.158,0.122 -0.268,0.157 -0.117,0.042 -0.224,0.063 -0.32,0.063 h -0.207 v -5.121 c 0,-0.174 0.058,-0.309 0.171,-0.402 0.114,-0.095 0.239,-0.141 0.376,-0.141 h 0.093 v -0.105 h -3.309 v 0.105 h 0.113 c 0.144,0 0.267,0.052 0.371,0.156 0.103,0.105 0.155,0.234 0.155,0.387 v 4.974 c 0,0.153 -0.051,0.282 -0.15,0.387 -0.1,0.104 -0.222,0.157 -0.366,0.157 h -0.123 v 0.104 h 3.546 C -0.783,1.724 0,1.149 0,0" /></g><g
           transform="translate(99.6885,26.3794)"
           id="g108"><path
             id="path110"
             style="fill:#70c074;fill-opacity:1;fill-rule:nonzero;stroke:none"
             d="m 0,0 v 0.104 h 0.145 c 0.123,0 0.212,0.044 0.267,0.131 0.056,0.087 0.079,0.176 0.072,0.266 L 0.145,2.842 -1.278,0.826 C -1.382,0.679 -1.472,0.509 -1.547,0.313 -1.623,0.118 -1.66,-0.016 -1.66,-0.089 V -0.23 H -1.743 L -4.062,2.696 -4.342,0.501 C -4.349,0.432 -4.33,0.362 -4.29,0.292 -4.221,0.167 -4.125,0.104 -4.001,0.104 h 0.145 V 0 h -2.001 v 0.104 h 0.134 c 0.172,0 0.32,0.047 0.443,0.142 0.125,0.094 0.196,0.228 0.218,0.402 l 0.803,5.748 h 0.082 l 3.073,-3.919 2.753,3.919 h 0.093 l 0.825,-5.8 C 2.609,0.442 2.687,0.322 2.8,0.235 2.913,0.148 3.045,0.104 3.197,0.104 H 3.342 V 0 Z" /></g><g
           transform="translate(103.0391,26.3794)"
           id="g112"><path
             id="path114"
             style="fill:#70c074;fill-opacity:1;fill-rule:nonzero;stroke:none"
             d="m 0,0 v 0.104 h 0.114 c 0.145,0 0.254,0.039 0.33,0.115 0.137,0.133 0.205,0.276 0.205,0.429 V 5.612 C 0.649,5.772 0.597,5.904 0.49,6.009 0.384,6.113 0.259,6.166 0.114,6.166 H 0 v 0.105 h 4.021 c 0.173,0 0.366,0.017 0.579,0.052 0.213,0.034 0.361,0.069 0.443,0.104 V 4.452 H 4.939 V 4.504 C 4.939,4.908 4.835,5.222 4.626,5.445 4.416,5.667 4.118,5.783 3.733,5.79 H 2.672 V 3.333 H 3.465 C 3.768,3.341 4.014,3.443 4.202,3.642 4.392,3.84 4.486,4.097 4.486,4.41 V 4.431 H 4.589 V 1.735 H 4.486 V 1.776 C 4.486,2.083 4.392,2.337 4.202,2.54 4.014,2.742 3.768,2.842 3.465,2.842 H 2.672 V 0.48 h 0.989 c 0.412,0 0.787,0.154 1.124,0.46 0.337,0.307 0.568,0.725 0.692,1.254 H 5.569 L 5.28,0 Z" /></g><g
           transform="translate(114.9805,30.9253)"
           id="g116"><path
             id="path118"
             style="fill:#70c074;fill-opacity:1;fill-rule:nonzero;stroke:none"
             d="m 0,0 c 0,-0.362 -0.086,-0.697 -0.258,-1.003 -0.199,-0.355 -0.553,-0.579 -1.061,-0.669 0.24,-0.063 0.462,-0.186 0.665,-0.371 0.203,-0.185 0.337,-0.336 0.402,-0.455 0.065,-0.118 0.133,-0.251 0.201,-0.397 0.405,-0.801 0.726,-1.278 0.958,-1.432 0.124,-0.076 0.28,-0.114 0.465,-0.114 V -4.546 H 0.154 c -0.679,0 -1.123,0.046 -1.329,0.136 -0.282,0.125 -0.486,0.266 -0.613,0.423 -0.128,0.157 -0.25,0.34 -0.367,0.549 -0.186,0.32 -0.337,0.776 -0.453,1.369 -0.069,0.313 -0.183,0.512 -0.34,0.595 v 0.084 h 0.051 c 0.192,0 0.361,0.089 0.504,0.266 0.145,0.178 0.238,0.469 0.28,0.873 v 0.063 c 0.034,0.313 0.007,0.573 -0.082,0.778 -0.09,0.206 -0.169,0.344 -0.238,0.413 -0.069,0.07 -0.158,0.122 -0.268,0.157 -0.117,0.042 -0.224,0.063 -0.32,0.063 h -0.207 v -5.121 c 0,-0.174 0.058,-0.309 0.171,-0.402 0.114,-0.095 0.239,-0.141 0.376,-0.141 h 0.093 v -0.105 h -3.309 v 0.105 h 0.112 c 0.145,0 0.268,0.052 0.372,0.156 0.103,0.105 0.155,0.234 0.155,0.387 v 4.974 c 0,0.153 -0.051,0.282 -0.15,0.387 -0.1,0.104 -0.222,0.157 -0.366,0.157 h -0.123 v 0.104 h 3.546 C -0.783,1.724 0,1.149 0,0" /></g><g
           transform="translate(67.4736,22.4678)"
           id="g120"><path
             id="path122"
             style="fill:#70c074;fill-opacity:1;fill-rule:nonzero;stroke:none"
             d="m 0,0 c 0,-0.32 -0.063,-0.63 -0.19,-0.93 -0.128,-0.299 -0.312,-0.55 -0.552,-0.753 -0.434,-0.355 -0.895,-0.532 -1.383,-0.532 -0.495,0 -0.962,0.16 -1.402,0.48 v 0.105 c 0.248,0.042 0.434,0.109 0.562,0.204 0.128,0.093 0.229,0.179 0.305,0.256 0.172,0.188 0.286,0.407 0.346,0.658 0.057,0.251 0.086,0.429 0.086,0.533 0,0.55 -0.117,0.955 -0.35,1.212 -0.234,0.258 -0.547,0.387 -0.939,0.387 h -0.36 v -6.03 c 0.006,-0.181 0.074,-0.336 0.2,-0.465 0.128,-0.129 0.281,-0.193 0.459,-0.193 h 0.135 v -0.105 h -3.702 v 0.105 h 0.134 c 0.247,0 0.437,0.108 0.567,0.323 0.062,0.105 0.093,0.217 0.093,0.335 V 1.442 C -6.012,1.609 -6.084,1.75 -6.208,1.866 -6.332,1.98 -6.48,2.038 -6.651,2.038 h -0.124 l -0.01,0.105 h 3.928 c 0.943,0 1.665,-0.199 2.167,-0.596 C -0.23,1.191 0,0.676 0,0" /></g><g
           transform="translate(71.0313,17.3994)"
           id="g124"><path
             id="path126"
             style="fill:#70c074;fill-opacity:1;fill-rule:nonzero;stroke:none"
             d="M 0,0 H 0.114 V -0.104 H -3.197 V 0 h 0.114 c 0.145,0 0.268,0.052 0.37,0.157 0.105,0.104 0.155,0.233 0.155,0.386 v 4.975 c 0,0.153 -0.05,0.282 -0.155,0.387 -0.102,0.104 -0.225,0.157 -0.37,0.157 h -0.114 v 0.104 h 3.3 V 6.062 H 0 C -0.206,6.062 -0.357,5.974 -0.453,5.8 -0.502,5.716 -0.529,5.623 -0.536,5.518 V 0.543 C -0.529,0.39 -0.475,0.261 -0.371,0.157 -0.268,0.052 -0.145,0 0,0" /></g><g
           transform="translate(76.7549,17.2949)"
           id="g128"><path
             id="path130"
             style="fill:#70c074;fill-opacity:1;fill-rule:nonzero;stroke:none"
             d="m 0,0 h -5.28 v 0.104 h 0.113 c 0.145,0 0.27,0.053 0.376,0.157 0.107,0.105 0.16,0.234 0.16,0.387 v 4.975 c 0,0.152 -0.053,0.281 -0.16,0.386 -0.106,0.104 -0.231,0.157 -0.376,0.157 H -5.28 v 0.105 h 3.331 V 6.166 h -0.114 c -0.241,0 -0.406,-0.108 -0.496,-0.324 -0.034,-0.07 -0.05,-0.143 -0.05,-0.219 V 0.48 h 0.99 c 0.412,0 0.784,0.154 1.118,0.46 0.333,0.307 0.565,0.725 0.696,1.254 h 0.104 z" /></g><g
           transform="translate(79.085,19.0923)"
           id="g132"><path
             id="path134"
             style="fill:#70c074;fill-opacity:1;fill-rule:nonzero;stroke:none"
             d="M 0,0 H 1.505 L 0.753,1.756 Z m 5.125,-1.693 h 0.082 v -0.104 h -3.63 v 0.104 H 1.66 c 0.138,0 0.239,0.037 0.305,0.11 0.064,0.073 0.098,0.143 0.098,0.209 0,0.066 -0.018,0.137 -0.052,0.214 l -0.299,0.69 h -1.908 l -0.309,-0.721 c -0.028,-0.063 -0.042,-0.126 -0.042,-0.188 0,-0.063 0.032,-0.131 0.098,-0.204 0.065,-0.073 0.167,-0.11 0.304,-0.11 h 0.073 v -0.104 h -2.124 v 0.104 h 0.082 c 0.144,0 0.291,0.042 0.437,0.126 0.149,0.083 0.265,0.212 0.347,0.386 l 2.123,4.64 C 1.131,4.205 1.31,4.668 1.33,4.849 H 1.412 L 4.32,-1.16 c 0.179,-0.355 0.448,-0.533 0.805,-0.533" /></g><g
           transform="translate(89.5615,21.7676)"
           id="g136"><path
             id="path138"
             style="fill:#70c074;fill-opacity:1;fill-rule:nonzero;stroke:none"
             d="M 0,0 H -0.103 V 0.052 C -0.096,0.589 -0.281,0.958 -0.66,1.16 -0.838,1.265 -1.059,1.317 -1.319,1.317 h -0.763 v -5.142 c 0,-0.153 0.053,-0.282 0.159,-0.386 0.107,-0.105 0.236,-0.157 0.388,-0.157 h 0.102 v -0.105 h -3.31 v 0.105 h 0.103 c 0.145,0 0.27,0.052 0.376,0.157 0.107,0.104 0.16,0.233 0.16,0.386 V 1.317 H -4.856 C -5.448,1.31 -5.826,1.066 -5.991,0.585 -6.046,0.425 -6.073,0.248 -6.073,0.052 V 0 H -6.177 V 1.965 C -6.087,1.93 -5.936,1.895 -5.723,1.86 -5.51,1.826 -5.316,1.808 -5.145,1.808 h 4.115 c 0.178,0 0.381,0.018 0.607,0.052 0.228,0.035 0.368,0.07 0.423,0.105 z" /></g><g
           transform="translate(90.0049,17.2949)"
           id="g140"><path
             id="path142"
             style="fill:#70c074;fill-opacity:1;fill-rule:nonzero;stroke:none"
             d="m 0,0 v 0.104 h 0.114 c 0.145,0 0.254,0.039 0.33,0.115 0.137,0.133 0.205,0.276 0.205,0.429 V 5.612 C 0.649,5.772 0.597,5.904 0.49,6.009 0.384,6.113 0.259,6.166 0.114,6.166 H 0 v 0.105 h 4.021 c 0.172,0 0.366,0.017 0.579,0.052 0.212,0.034 0.361,0.069 0.443,0.104 V 4.452 H 4.939 V 4.504 C 4.939,4.908 4.835,5.222 4.626,5.445 4.416,5.667 4.118,5.783 3.733,5.79 H 2.672 V 3.333 H 3.465 C 3.768,3.341 4.014,3.443 4.202,3.642 4.392,3.84 4.486,4.097 4.486,4.41 V 4.431 H 4.589 V 1.735 H 4.486 V 1.776 C 4.486,2.083 4.392,2.337 4.202,2.54 4.014,2.742 3.768,2.842 3.465,2.842 H 2.672 V 0.48 h 0.989 c 0.412,0 0.787,0.154 1.124,0.46 0.337,0.307 0.568,0.725 0.692,1.254 H 5.569 L 5.28,0 Z" /></g><g
           transform="translate(101.0186,19.4058)"
           id="g144"><path
             id="path146"
             style="fill:#70c074;fill-opacity:1;fill-rule:nonzero;stroke:none"
             d="m 0,0 c 0,-0.766 -0.271,-1.341 -0.814,-1.724 -0.482,-0.341 -1.149,-0.512 -2.001,-0.512 -0.509,0 -0.933,0.057 -1.274,0.172 -0.341,0.115 -0.576,0.256 -0.706,0.423 -0.061,0.147 -0.093,0.3 -0.093,0.46 0,0.16 0.014,0.314 0.041,0.46 0.076,0.369 0.197,0.659 0.362,0.867 h 0.061 V 0.052 c 0,-0.467 0.165,-0.885 0.495,-1.254 0.336,-0.369 0.801,-0.553 1.392,-0.553 0.351,0 0.616,0.079 0.795,0.24 0.178,0.16 0.267,0.345 0.267,0.554 0,0.209 -0.081,0.394 -0.242,0.554 -0.162,0.16 -0.425,0.32 -0.789,0.48 l -1.082,0.512 c -0.44,0.188 -0.764,0.464 -0.97,0.826 -0.158,0.278 -0.237,0.585 -0.237,0.92 0,0.111 0.007,0.223 0.021,0.334 0.151,1.08 0.804,1.62 1.959,1.62 0.385,0 0.904,-0.032 1.557,-0.094 h 0.691 L -0.814,2.665 h -0.062 c 0,0.341 -0.122,0.615 -0.367,0.82 -0.243,0.206 -0.548,0.309 -0.912,0.309 -0.702,0 -1.076,-0.23 -1.124,-0.69 -0.021,-0.223 0.061,-0.4 0.247,-0.533 0.144,-0.097 0.344,-0.198 0.598,-0.303 L -1.103,1.651 C -0.739,1.491 -0.463,1.268 -0.278,0.982 -0.093,0.697 0,0.37 0,0" /></g><g
           transform="translate(66.5762,10.5723)"
           id="g148"><path
             id="path150"
             style="fill:#70c074;fill-opacity:1;fill-rule:nonzero;stroke:none"
             d="m 0,0 c 0,-0.843 -0.295,-1.472 -0.887,-1.887 -0.592,-0.414 -1.378,-0.621 -2.361,-0.621 -0.57,0 -1.072,0.065 -1.506,0.194 -0.433,0.128 -0.746,0.29 -0.938,0.485 -0.062,0.153 -0.093,0.319 -0.093,0.496 0,0.179 0.014,0.351 0.041,0.518 0.076,0.411 0.203,0.732 0.382,0.961 H -5.27 C -5.276,0.104 -5.279,0.06 -5.279,0.011 c 0,-0.516 0.2,-0.978 0.602,-1.385 0.403,-0.408 0.951,-0.611 1.645,-0.611 0.468,0 0.827,0.098 1.078,0.298 0.251,0.198 0.377,0.424 0.377,0.679 0,0.254 -0.086,0.472 -0.258,0.653 -0.172,0.181 -0.451,0.362 -0.835,0.543 l -1.682,0.794 c -0.473,0.216 -0.818,0.519 -1.03,0.91 -0.173,0.306 -0.258,0.644 -0.258,1.013 0,0.752 0.25,1.324 0.752,1.714 0.419,0.32 0.977,0.481 1.67,0.481 0.455,0 1.035,-0.036 1.743,-0.104 H -0.67 L -0.897,3.292 H -1 c 0,0.383 -0.148,0.693 -0.443,0.93 -0.296,0.237 -0.672,0.355 -1.129,0.355 -0.458,0 -0.812,-0.08 -1.063,-0.24 C -3.886,4.177 -4.021,3.964 -4.042,3.699 -4.069,3.372 -3.863,3.093 -3.423,2.863 -3.348,2.821 -3.248,2.776 -3.125,2.728 l 1.93,-0.91 C -0.398,1.449 0,0.843 0,0" /></g><g
           transform="translate(73.2275,12.6836)"
           id="g152"><path
             id="path154"
             style="fill:#70c074;fill-opacity:1;fill-rule:nonzero;stroke:none"
             d="m 0,0 h -0.104 v 0.052 c 0.007,0.537 -0.178,0.905 -0.556,1.107 -0.179,0.105 -0.399,0.157 -0.659,0.157 h -0.764 v -5.141 c 0,-0.154 0.054,-0.282 0.159,-0.387 0.108,-0.104 0.237,-0.156 0.388,-0.156 h 0.102 v -0.105 h -3.31 v 0.105 h 0.103 c 0.145,0 0.27,0.052 0.377,0.156 0.106,0.105 0.16,0.233 0.16,0.387 V 1.316 H -4.856 C -5.449,1.31 -5.826,1.065 -5.991,0.585 -6.047,0.425 -6.073,0.247 -6.073,0.052 V 0 h -0.104 v 1.965 c 0.09,-0.035 0.24,-0.07 0.453,-0.106 0.214,-0.034 0.407,-0.051 0.578,-0.051 h 4.115 c 0.178,0 0.382,0.017 0.608,0.051 C -0.196,1.895 -0.055,1.93 0,1.965 Z" /></g><g
           transform="translate(80.5898,14.3975)"
           id="g156"><path
             id="path158"
             style="fill:#70c074;fill-opacity:1;fill-rule:nonzero;stroke:none"
             d="m 0,0 h -0.134 c -0.123,0 -0.229,-0.044 -0.319,-0.131 -0.09,-0.087 -0.134,-0.193 -0.134,-0.319 v -3.406 c 0,-0.774 -0.227,-1.377 -0.681,-1.808 -0.454,-0.433 -1.1,-0.648 -1.939,-0.648 -2.131,0 -3.196,0.811 -3.196,2.434 v 3.428 c 0,0.202 -0.093,0.342 -0.279,0.419 C -6.737,-0.011 -6.795,0 -6.856,0 h -0.135 v 0.083 h 3.197 V 0 H -3.938 C -4.062,0 -4.168,-0.042 -4.254,-0.126 -4.34,-0.209 -4.382,-0.317 -4.382,-0.45 v -3.406 c 0,-0.836 0.231,-1.412 0.691,-1.725 0.227,-0.153 0.498,-0.23 0.814,-0.23 0.468,0 0.829,0.16 1.083,0.481 0.254,0.32 0.386,0.773 0.392,1.358 v 3.522 c -0.006,0.133 -0.054,0.241 -0.139,0.324 C -1.627,-0.042 -1.732,0 -1.855,0 H -1.989 V 0.083 H 0 Z" /></g><g
           transform="translate(83.6221,14.0107)"
           id="g160"><path
             id="path162"
             style="fill:#70c074;fill-opacity:1;fill-rule:nonzero;stroke:none"
             d="m 0,0 v -5.32 h 0.588 c 0.549,0 0.982,0.233 1.3,0.701 0.315,0.467 0.473,1.118 0.473,1.954 0,1.129 -0.275,1.912 -0.825,2.351 C 1.269,-0.104 0.952,0 0.588,0 Z m 3.506,-0.355 c 0.646,-0.551 0.97,-1.323 0.97,-2.315 0,-0.993 -0.324,-1.764 -0.97,-2.31 C 2.859,-5.526 1.952,-5.8 0.783,-5.8 h -3.506 v 0.105 h 0.124 c 0.159,0 0.294,0.055 0.408,0.167 0.113,0.111 0.17,0.243 0.17,0.396 v 4.964 c -0.014,0.154 -0.076,0.281 -0.186,0.382 -0.11,0.101 -0.244,0.151 -0.402,0.151 H -2.732 V 0.47 h 3.515 c 1.169,0 2.076,-0.276 2.723,-0.825" /></g><g
           transform="translate(91.6553,8.3154)"
           id="g164"><path
             id="path166"
             style="fill:#70c074;fill-opacity:1;fill-rule:nonzero;stroke:none"
             d="M 0,0 H 0.113 V -0.104 H -3.196 V 0 h 0.113 c 0.145,0 0.269,0.052 0.371,0.156 0.104,0.105 0.155,0.234 0.155,0.387 v 4.975 c 0,0.152 -0.051,0.281 -0.155,0.386 -0.102,0.105 -0.226,0.157 -0.371,0.157 h -0.113 v 0.104 h 3.3 V 6.061 H 0 C -0.206,6.061 -0.357,5.974 -0.454,5.799 -0.501,5.716 -0.529,5.622 -0.536,5.518 V 0.543 C -0.529,0.39 -0.475,0.261 -0.371,0.156 -0.269,0.052 -0.145,0 0,0" /></g><g
           transform="translate(94.2949,11.3457)"
           id="g168"><path
             id="path170"
             style="fill:#70c074;fill-opacity:1;fill-rule:nonzero;stroke:none"
             d="m 0,0 c 0,-0.893 0.141,-1.58 0.424,-2.064 0.281,-0.485 0.69,-0.726 1.225,-0.726 0.538,0 0.947,0.241 1.228,0.726 0.282,0.484 0.424,1.168 0.424,2.053 0,1.205 -0.248,2.028 -0.743,2.467 C 2.311,2.679 2.008,2.79 1.649,2.79 1.114,2.79 0.705,2.548 0.424,2.063 0.141,1.58 0,0.892 0,0 m -2.104,0 c 0,1.03 0.333,1.832 0.996,2.403 0.664,0.572 1.585,0.858 2.764,0.858 1.179,0 2.1,-0.286 2.763,-0.858 C 5.082,1.832 5.414,1.03 5.414,0 5.414,-1.031 5.082,-1.832 4.419,-2.404 3.756,-2.975 2.835,-3.261 1.656,-3.261 c -1.179,0 -2.1,0.286 -2.764,0.857 -0.663,0.572 -0.996,1.373 -0.996,2.404" /></g></g></g></g></svg>