<?xml version="1.0" standalone="no"?>
<!DOCTYPE svg PUBLIC "-//W3C//DTD SVG 20010904//EN"
 "http://www.w3.org/TR/2001/REC-SVG-20010904/DTD/svg10.dtd">
<svg version="1.0" xmlns="http://www.w3.org/2000/svg"
 width="1024.000000pt" height="1024.000000pt" viewBox="0 0 1024.000000 1024.000000"
 preserveAspectRatio="xMidYMid meet">
<metadata>
Created by potrace 1.16, written by Peter Selinger 2001-2019
</metadata>
<g transform="translate(0.000000,1024.000000) scale(0.100000,-0.100000)"
fill="#fadadd" stroke="none">
<path d="M5210 9049 c-326 -19 -703 -91 -980 -187 -129 -45 -364 -145 -487
-206 -72 -36 -136 -66 -143 -66 -6 0 -19 7 -27 16 -13 13 -30 15 -87 10 l-71
-6 50 15 c28 9 88 21 134 28 91 13 116 30 95 65 -24 37 -227 23 -330 -24 -33
-14 -107 -45 -166 -69 -59 -24 -119 -52 -135 -61 -15 -10 -158 -149 -318 -310
-317 -318 -432 -427 -446 -418 -5 3 -9 25 -9 50 0 88 -52 153 -165 206 -59 27
-84 33 -162 36 -140 6 -183 -11 -283 -111 l-79 -81 -62 -4 -61 -5 5 -49 c5
-40 3 -52 -13 -68 -11 -11 -20 -26 -20 -32 0 -29 -28 -89 -48 -106 -29 -26
-29 -72 1 -99 12 -12 49 -34 82 -51 128 -64 156 -128 108 -242 -55 -130 -125
-211 -347 -403 -113 -98 -149 -136 -194 -205 -94 -144 -96 -155 -98 -397 0
-115 -5 -282 -10 -370 -14 -263 -7 -353 46 -580 16 -66 40 -185 54 -265 39
-219 78 -353 161 -550 79 -189 272 -546 329 -610 12 -14 56 -72 97 -130 41
-58 81 -114 91 -125 9 -11 45 -56 79 -100 35 -44 72 -89 81 -99 19 -21 73 -99
208 -301 82 -123 218 -347 290 -480 61 -111 261 -440 281 -461 10 -11 19 -23
19 -26 0 -8 149 -209 171 -230 8 -8 32 -35 55 -59 88 -97 201 -169 263 -169
16 0 35 8 44 18 30 33 20 73 -43 172 -89 140 -120 238 -120 391 0 93 -23 125
-114 160 -101 39 -122 54 -165 117 -46 69 -78 150 -170 437 -75 231 -136 372
-198 459 -36 50 -159 200 -197 241 -82 88 -159 263 -186 425 -20 116 -40 183
-86 282 -30 64 -51 127 -60 181 -14 82 -14 85 12 173 42 141 46 164 46 254 1
96 -18 179 -62 273 -37 81 -87 145 -226 288 -62 64 -116 128 -120 143 -13 52
2 218 25 286 20 59 185 402 228 475 16 26 95 157 158 258 10 18 69 109 130
202 61 94 130 200 154 237 42 67 43 67 70 54 14 -8 45 -17 67 -21 154 -25 281
155 214 302 -17 37 -24 43 -59 49 -54 9 -54 32 0 76 94 76 113 94 151 151 22
32 78 107 124 165 47 59 107 139 134 177 108 153 166 229 190 247 16 12 57 22
114 28 50 6 95 15 101 20 22 19 25 -4 3 -27 -37 -40 -1 -26 130 51 247 143
400 211 667 295 142 45 438 106 620 128 177 22 701 24 880 5 726 -79 1332
-316 1825 -715 101 -82 328 -285 338 -303 4 -7 36 -43 72 -81 331 -346 650
-888 865 -1468 56 -151 78 -220 116 -357 6 -24 16 -38 26 -38 17 0 17 2 -12
137 -15 72 -14 146 1 130 3 -3 17 -61 30 -129 14 -67 35 -168 49 -223 54 -226
91 -501 98 -719 1 -46 7 -81 13 -83 11 -4 20 33 60 257 34 194 32 438 -7 750
-41 330 -149 670 -328 1030 -76 153 -232 426 -251 440 -4 3 -37 48 -75 100
-37 52 -71 97 -75 100 -4 3 -24 27 -44 54 -20 27 -49 61 -64 76 -15 15 -36 38
-48 51 -62 70 -328 311 -404 364 -61 44 -142 106 -150 117 -3 4 -17 11 -30 17
-14 6 -68 38 -120 71 -185 117 -510 272 -761 363 -454 164 -1032 246 -1539
216z"/>
<path d="M2250 6126 c-152 -40 -219 -174 -154 -304 28 -56 68 -90 192 -161
140 -81 179 -138 152 -222 -18 -54 -59 -82 -130 -87 -95 -7 -160 38 -196 136
-22 60 -32 72 -51 65 -13 -5 -15 -22 -10 -111 3 -57 9 -108 15 -114 21 -21
148 -48 223 -48 117 0 196 36 246 112 23 34 29 55 31 117 3 65 0 83 -20 121
-29 54 -94 105 -205 162 -103 52 -134 83 -140 140 -10 92 41 142 138 136 73
-5 105 -27 136 -94 20 -45 29 -55 46 -52 21 3 22 7 19 93 -2 50 -7 93 -10 97
-10 10 -130 28 -187 27 -27 0 -70 -6 -95 -13z"/>
<path d="M8209 6130 c-129 -22 -209 -112 -209 -233 0 -93 46 -144 220 -243
113 -65 127 -75 145 -110 36 -69 10 -154 -58 -185 -111 -50 -230 14 -262 139
-10 40 -16 47 -36 47 -23 0 -24 -3 -22 -60 1 -33 5 -84 8 -113 6 -48 9 -54 40
-66 53 -22 184 -39 249 -31 176 20 278 168 219 317 -33 85 -73 119 -232 198
-115 57 -143 87 -143 154 0 57 23 90 75 111 85 34 171 -6 217 -100 21 -43 46
-58 54 -32 3 6 7 54 10 104 5 90 4 93 -17 92 -12 -1 -51 3 -87 10 -72 12 -103
12 -171 1z"/>
<path d="M2983 6106 c-111 -41 -199 -123 -251 -234 -25 -52 -27 -67 -27 -182
0 -114 2 -130 26 -181 50 -106 138 -174 273 -212 64 -18 101 -36 153 -74 94
-70 181 -111 255 -122 98 -14 208 10 208 44 0 11 -13 15 -50 15 -27 0 -73 9
-101 19 -61 24 -179 99 -179 115 0 6 29 26 65 44 185 96 261 323 180 537 -67
179 -185 256 -394 254 -75 0 -110 -5 -158 -23z m262 -66 c55 -34 84 -68 119
-140 30 -64 31 -68 31 -210 0 -130 -2 -150 -23 -196 -51 -113 -154 -166 -274
-143 -91 18 -139 55 -181 137 -84 168 -71 383 29 501 15 19 51 45 79 58 65 31
163 28 220 -7z"/>
<path d="M3978 6124 c-10 -3 -18 -14 -18 -23 0 -14 10 -20 41 -24 23 -3 47
-10 53 -17 13 -13 21 -621 8 -672 -7 -28 -14 -34 -50 -43 -35 -7 -42 -13 -40
-30 3 -19 11 -20 143 -23 167 -4 205 2 205 28 0 14 -10 20 -51 25 -28 4 -52
12 -54 19 -2 6 -5 68 -7 137 l-3 127 100 4 c80 4 112 10 156 30 105 48 149
114 149 223 0 111 -78 202 -193 224 -57 11 -411 23 -439 15z m392 -86 c114
-58 122 -232 16 -313 -38 -29 -160 -57 -173 -40 -5 6 -7 92 -5 193 l3 182 57
0 c40 0 72 -7 102 -22z"/>
<path d="M4745 6122 c-84 -4 -100 -34 -25 -47 24 -4 44 -14 50 -25 6 -11 10
-146 10 -337 0 -360 -1 -366 -63 -371 -33 -3 -38 -6 -35 -25 3 -21 7 -22 166
-25 l162 -2 0 24 c0 19 -7 26 -32 31 -60 13 -58 -1 -58 360 0 184 3 340 6 349
4 11 19 16 50 16 43 0 53 10 36 36 -7 12 -164 21 -267 16z"/>
<path d="M5165 6121 c-54 -5 -71 -10 -73 -23 -2 -13 7 -18 43 -23 38 -6 46
-12 53 -34 4 -14 7 -171 7 -349 0 -309 -1 -324 -19 -338 -11 -8 -33 -14 -49
-14 -24 0 -28 -4 -25 -22 l3 -23 303 0 304 0 5 75 c2 41 5 82 5 90 2 35 -3 60
-12 60 -5 0 -21 -21 -34 -47 -42 -84 -61 -95 -179 -106 -58 -5 -116 -7 -131
-3 l-26 6 0 334 c0 375 -2 366 71 366 38 0 40 2 37 28 l-3 27 -105 1 c-58 0
-136 -2 -175 -5z"/>
<path d="M6182 6118 c-6 -7 -24 -49 -40 -93 -17 -44 -64 -161 -105 -260 -164
-397 -170 -407 -242 -421 -37 -7 -49 -36 -19 -48 24 -9 247 -7 262 3 26 16 9
46 -28 51 -31 5 -35 9 -33 32 1 15 17 65 35 112 l33 85 120 1 121 0 38 -111
c41 -116 40 -128 -7 -129 -22 0 -34 -29 -17 -40 16 -10 240 -12 288 -4 45 9
44 39 -2 48 -18 4 -40 14 -48 24 -8 9 -39 78 -67 152 -29 74 -69 176 -90 225
-21 50 -50 122 -65 160 -36 93 -99 218 -112 222 -6 2 -16 -2 -22 -9z m78 -475
c0 -8 -170 -2 -174 6 -4 5 7 43 24 84 16 42 30 80 30 85 0 6 7 18 17 27 15 16
19 9 60 -91 23 -60 43 -109 43 -111z"/>
<path d="M6555 6118 c-3 -7 -6 -56 -7 -108 -3 -78 0 -95 12 -97 9 -1 24 17 40
50 30 61 87 97 156 97 l43 0 6 -52 c4 -29 5 -185 3 -346 -3 -277 -4 -294 -22
-308 -11 -8 -35 -14 -53 -14 -29 0 -33 -3 -33 -25 l0 -25 168 0 c92 0 173 4
181 9 24 16 6 35 -44 46 -39 8 -50 15 -55 35 -3 14 -5 171 -4 350 l2 325 51
-1 c74 -2 120 -30 154 -92 17 -31 35 -52 45 -52 15 0 17 13 17 102 0 57 -4
106 -10 110 -5 4 -153 7 -327 8 -249 0 -319 -2 -323 -12z"/>
<path d="M7258 6123 c-47 -12 0 -53 61 -53 15 0 32 -5 39 -12 9 -9 12 -102 12
-355 l0 -343 -26 -10 c-14 -6 -37 -10 -50 -10 -21 0 -25 -4 -22 -22 l3 -23
302 0 301 0 7 103 c7 102 1 133 -23 118 -6 -4 -22 -31 -35 -60 -36 -77 -64
-90 -197 -91 l-105 0 -3 163 -2 162 67 -1 c103 -2 115 -7 143 -66 16 -34 31
-53 43 -53 15 0 17 13 17 141 0 128 -2 140 -17 137 -10 -2 -23 -13 -29 -26
-28 -56 -41 -62 -136 -62 l-88 0 0 151 0 152 98 -5 c126 -6 150 -18 185 -90
20 -42 33 -58 48 -58 19 0 20 6 17 108 l-3 107 -295 1 c-162 1 -303 0 -312 -3z"/>
<path d="M9250 5021 c0 -138 -296 -886 -461 -1164 -36 -62 -198 -308 -263
-402 -74 -106 -314 -382 -423 -485 -401 -382 -783 -655 -1229 -878 -78 -39
-190 -91 -250 -117 -60 -25 -118 -50 -129 -55 -39 -17 -211 -78 -295 -103
-234 -72 -501 -126 -775 -158 -143 -17 -609 -17 -740 -1 -291 37 -375 51 -600
103 -152 36 -496 132 -548 154 -46 19 -77 19 -77 0 0 -8 5 -15 11 -15 7 0 84
-32 173 -71 537 -237 992 -342 1541 -356 615 -15 1198 112 1750 381 329 161
665 381 935 615 41 35 102 87 134 115 76 65 126 116 256 257 58 63 107 116
110 119 3 3 25 30 50 60 25 30 55 66 67 80 13 14 23 28 23 31 0 3 11 19 25 35
27 31 35 42 137 199 176 272 353 656 456 990 53 172 162 629 162 678 0 4 -9 7
-20 7 -13 0 -20 -7 -20 -19z"/>
<path d="M7313 4882 c-44 -2 -63 -7 -67 -18 -9 -22 2 -34 30 -34 23 0 24 -3
24 -69 l0 -69 -39 5 c-125 17 -210 -65 -211 -203 0 -113 61 -184 160 -184 25
0 56 7 68 16 20 14 22 14 22 0 0 -13 14 -16 74 -16 41 0 77 4 80 9 10 16 -5
41 -29 47 -13 3 -25 13 -27 22 -2 10 -3 124 -3 254 0 150 -4 239 -10 240 -5 2
-38 2 -72 0z m-32 -242 c17 -10 19 -22 19 -123 0 -123 -5 -137 -52 -137 -94 0
-133 160 -59 239 30 32 58 38 92 21z"/>
<path d="M6005 4861 c-63 -30 -88 -62 -93 -126 -6 -72 22 -117 104 -164 113
-66 124 -77 124 -125 0 -116 -134 -112 -183 5 -17 39 -26 49 -42 47 -18 -3
-20 -9 -16 -78 2 -41 8 -78 15 -82 45 -31 197 -38 251 -12 61 29 79 57 79 128
0 88 -21 120 -117 176 -89 52 -113 75 -122 112 -5 21 -1 33 19 52 45 46 122
25 154 -42 9 -20 25 -38 35 -40 15 -3 17 5 17 68 0 66 -1 71 -26 80 -14 6 -55
12 -92 15 -52 4 -76 1 -107 -14z"/>
<path d="M2397 4864 c-16 -17 -7 -44 16 -44 49 0 49 -4 48 -226 -1 -115 -5
-212 -9 -216 -4 -3 -18 -8 -32 -10 -19 -2 -25 -9 -25 -28 l0 -25 110 0 c105 0
110 1 113 22 2 17 -3 23 -27 28 l-31 7 0 94 c0 52 2 94 5 94 3 0 22 -26 42
-57 107 -166 179 -214 281 -187 33 9 29 44 -5 44 -31 0 -107 73 -161 155 -36
54 -37 52 28 87 62 35 76 142 28 204 -36 45 -80 56 -233 61 -78 2 -144 1 -148
-3z m235 -54 c107 -30 84 -182 -29 -197 l-43 -6 0 100 c0 55 3 103 7 106 9 9
22 9 65 -3z"/>
<path d="M3425 4856 c-47 -21 -67 -51 -73 -105 -4 -47 -6 -50 -36 -53 -25 -2
-32 -8 -34 -30 -3 -26 -1 -28 32 -28 l36 0 0 -134 c0 -142 -1 -146 -50 -146
-28 0 -36 -21 -15 -37 23 -16 230 -19 240 -2 9 13 -32 49 -57 49 -17 0 -18 10
-18 134 l0 135 48 3 c40 3 47 6 50 25 4 25 -30 39 -73 31 -24 -5 -25 -4 -25
53 0 32 5 61 10 64 18 11 50 -6 56 -31 4 -17 13 -24 30 -24 18 0 24 7 29 34
12 63 6 71 -60 73 -34 2 -73 -3 -90 -11z"/>
<path d="M6395 4768 c-15 -18 -31 -42 -35 -54 -5 -12 -19 -24 -32 -26 -15 -2
-24 -11 -26 -25 -3 -20 1 -23 27 -23 l31 0 0 -143 c0 -173 3 -179 86 -185 117
-8 191 57 79 68 -28 3 -56 9 -62 13 -9 6 -13 42 -13 122 l0 114 53 3 c48 3 52
5 55 31 3 27 3 27 -54 27 l-57 0 7 55 c6 50 4 55 -13 55 -11 0 -31 -14 -46
-32z"/>
<path d="M3025 4686 c-69 -32 -121 -125 -109 -195 9 -58 25 -105 43 -125 24
-28 91 -56 136 -56 72 0 165 59 152 95 -9 21 -34 19 -64 -5 -31 -24 -80 -26
-112 -4 -28 20 -51 72 -51 114 l0 30 120 0 c100 0 120 2 120 15 0 24 -39 101
-61 121 -26 24 -132 30 -174 10z"/>
<path d="M3664 4680 c-30 -15 -49 -35 -69 -71 -25 -46 -27 -59 -23 -123 6 -87
18 -114 66 -146 32 -21 48 -25 117 -25 68 0 85 4 113 23 108 77 100 287 -13
342 -55 27 -137 26 -191 0z m119 -39 c35 -14 57 -68 57 -143 0 -107 -57 -166
-118 -121 -68 51 -68 235 0 263 30 12 32 12 61 1z"/>
<path d="M4013 4693 c-33 -6 -29 -36 7 -50 l30 -11 0 -130 0 -130 -30 -7 c-33
-7 -42 -38 -14 -49 23 -9 214 -7 214 2 -1 17 -28 41 -53 47 l-27 7 0 108 c0
93 3 109 19 124 21 19 41 14 41 -10 0 -8 10 -14 25 -14 28 0 58 47 53 83 -4
30 -48 44 -98 30 -22 -5 -40 -6 -40 -2 0 9 -85 10 -127 2z"/>
<path d="M4333 4693 c-20 -8 -15 -27 12 -51 24 -21 25 -26 25 -147 l0 -125
-26 -6 c-18 -5 -24 -12 -22 -28 3 -21 5 -21 303 -21 l300 0 3 23 c2 14 -2 22
-12 22 -25 0 -29 18 -33 149 -2 69 -8 136 -14 147 -23 45 -96 56 -164 25 -39
-18 -42 -18 -75 0 -42 23 -101 24 -140 4 -27 -14 -30 -14 -30 0 0 12 -12 15
-57 14 -32 0 -64 -3 -70 -6z m237 -82 c5 -11 10 -69 10 -130 l0 -110 -35 -7
c-19 -3 -46 -3 -60 0 -25 6 -25 7 -25 118 0 90 3 115 17 130 22 25 79 24 93
-1z m200 9 c12 -7 16 -36 18 -129 4 -117 3 -119 -20 -126 -13 -4 -26 -13 -30
-19 -5 -7 -11 -8 -15 -1 -5 6 -17 15 -28 21 -18 10 -20 23 -23 120 -3 101 -1
110 19 127 23 19 56 22 79 7z"/>
<path d="M5065 4677 c-56 -32 -85 -87 -85 -163 0 -108 29 -161 106 -190 61
-23 132 -15 184 21 42 29 50 54 25 75 -12 10 -20 7 -46 -14 -66 -55 -151 -17
-168 76 -4 26 -6 50 -3 53 3 3 59 5 125 5 91 0 118 3 115 13 -3 6 -13 35 -23
63 -14 41 -26 55 -52 68 -49 23 -130 20 -178 -7z"/>
<path d="M5365 4687 c-21 -16 -13 -34 21 -47 24 -9 24 -11 24 -139 l0 -128
-31 -7 c-25 -5 -30 -10 -27 -28 3 -21 9 -23 78 -26 41 -2 85 0 97 3 32 8 30
41 -2 49 -25 6 -25 8 -25 107 0 55 5 109 10 120 13 23 38 25 46 4 4 -8 18 -15
33 -15 19 0 29 8 39 30 30 67 -12 107 -85 81 -27 -10 -38 -11 -41 -2 -5 16
-114 14 -137 -2z"/>
<path d="M6610 4691 c-36 -10 -34 -45 3 -49 l27 -3 0 -130 c0 -187 15 -208
138 -196 34 4 61 12 68 22 10 14 12 13 17 -5 5 -19 12 -21 74 -18 61 3 68 5
71 24 2 16 -4 23 -22 28 l-26 6 0 165 0 165 -63 0 c-62 0 -87 -11 -87 -37 0
-7 6 -13 14 -13 36 0 43 -26 39 -127 -4 -88 -7 -100 -29 -120 -14 -13 -36 -23
-48 -23 -43 0 -51 23 -56 174 l-5 141 -45 2 c-25 1 -56 -2 -70 -6z"/>
<path d="M7498 4689 c-27 -15 -22 -27 17 -43 l35 -15 0 -130 0 -129 -31 -7
c-24 -5 -29 -11 -27 -28 3 -21 9 -22 96 -25 62 -2 92 1 87 7 -3 7 0 8 9 5 19
-7 20 0 6 27 -6 10 -20 19 -31 19 -20 0 -21 5 -19 153 1 83 2 158 1 165 -1 15
-117 16 -143 1z"/>
<path d="M7838 4680 c-69 -37 -105 -117 -94 -208 13 -114 82 -167 205 -160 55
3 75 9 103 30 42 32 70 87 76 150 6 63 -32 143 -84 178 -51 34 -153 39 -206
10z m140 -50 c43 -46 54 -148 22 -217 -29 -66 -101 -68 -134 -5 -22 43 -30
124 -16 166 22 67 90 97 128 56z"/>
<path d="M8395 3593 c-74 -114 -398 -454 -595 -623 -322 -278 -735 -542 -1102
-706 -370 -165 -748 -271 -1133 -319 -562 -69 -1051 -23 -1630 153 -360 109
-822 343 -1092 554 -35 26 -69 48 -78 48 -18 0 -20 -26 -2 -33 6 -3 60 -43
119 -90 304 -242 494 -365 808 -522 407 -204 750 -305 1170 -346 143 -14 522
-13 655 1 242 26 563 99 775 177 350 128 565 235 845 419 331 217 694 530 924
795 35 41 71 81 80 89 40 37 311 408 311 425 0 3 -8 5 -19 5 -10 0 -27 -12
-36 -27z"/>
</g>
</svg>
