<?xml version="1.0" standalone="no"?>
<!DOCTYPE svg PUBLIC "-//W3C//DTD SVG 20010904//EN"
 "http://www.w3.org/TR/2001/REC-SVG-20010904/DTD/svg10.dtd">
<svg version="1.0" xmlns="http://www.w3.org/2000/svg" width="512.000000pt" height="512.000000pt" viewBox="0 0 512.000000 512.000000" preserveAspectRatio="xMidYMid meet">
	<g transform="translate(0.000000,512.000000) scale(0.100000,-0.100000)" fill="#046bd2" stroke="none">
		<path d="M3041 4123 c-19 -10 -43 -29 -53 -43 -19 -27 -1211 -2877 -1227
-2935 -21 -77 30 -148 115 -161 26 -4 81 -4 123 0 79 6 108 20 143 67 35 46
1220 2891 1225 2941 4 36 1 54 -15 80 -33 53 -56 62 -172 66 -86 2 -111 0
-139 -15z"/>
		<path d="M1319 3407 c-115 -71 -1126 -769 -1166 -806 -55 -52 -71 -86 -79
-169 -10 -103 14 -170 80 -228 50 -44 1049 -736 1155 -801 87 -53 181 -41 216
27 24 46 21 249 -4 298 -23 45 -30 50 -538 397 -226 154 -410 280 -410 281 16
9 760 517 829 566 132 93 138 104 138 259 -1 135 -7 158 -56 190 -45 29 -101
25 -165 -14z"/>
		<path d="M3627 3407 c-43 -40 -51 -77 -45 -208 4 -82 9 -104 29 -134 17 -25
157 -126 481 -347 l456 -311 -441 -304 c-243 -168 -453 -314 -465 -326 -49
-46 -57 -73 -57 -208 0 -113 2 -129 20 -149 44 -49 107 -62 168 -36 46 20
1155 781 1200 824 62 59 77 98 77 197 0 99 -17 143 -78 200 -41 38 -1125 785
-1184 816 -21 10 -57 19 -82 19 -37 0 -51 -6 -79 -33z"/>
	</g>
</svg>
